<?xml version="1.0" encoding="utf-8"?>
<!-- Generator: Adobe Illustrator 23.0.0, SVG Export Plug-In . SVG Version: 6.00 Build 0)  -->
<svg version="1.1" id="Layer_1" xmlns="http://www.w3.org/2000/svg" xmlns:xlink="http://www.w3.org/1999/xlink" x="0px" y="0px"
	 viewBox="0 0 1024 768" style="enable-background:new 0 0 1024 768;" xml:space="preserve">
<style type="text/css">
	.st0{fill:url(#SVGID_1_);}
	.st1{fill:url(#SVGID_2_);}
	.st2{fill:url(#SVGID_3_);}
	.st3{fill:url(#SVGID_4_);}
	.st4{opacity:0.8;fill:#0C0F38;}
	.st5{opacity:0.8;fill:#D4088C;}
	.st6{fill:#6EE8FC;}
	.st7{fill:#D4088C;}
	.st8{fill:#6EE1F8;}
	.st9{fill-rule:evenodd;clip-rule:evenodd;fill:#03C2D3;stroke:#8060B2;stroke-width:2.0814;}
	.st10{fill:#03C2D3;stroke:#8060B2;stroke-width:2.0814;}
	.st11{fill-rule:evenodd;clip-rule:evenodd;fill:#03C2D3;stroke:#8060B2;stroke-miterlimit:10;}
	.st12{fill-rule:evenodd;clip-rule:evenodd;fill:#03C2D3;stroke:#8060B2;}
	.st13{fill-rule:evenodd;clip-rule:evenodd;fill:#03C2D3;stroke:#8060B2;stroke-width:2.3416;}
	.st14{fill:#03C2D3;stroke:#8060B2;stroke-width:2.0814;stroke-linecap:square;}
	.st15{fill:#03C2D3;stroke:#8060B2;stroke-miterlimit:10;}
</style>
<radialGradient id="SVGID_1_" cx="408.2201" cy="1997.1875" r="642.1139" gradientTransform="matrix(1.732 0 0 1.5845 -170.9503 -2664.3865)" gradientUnits="userSpaceOnUse">
	<stop  offset="0" style="stop-color:#22215B"/>
	<stop  offset="0.3261" style="stop-color:#1E1E55"/>
	<stop  offset="0.7509" style="stop-color:#141645"/>
	<stop  offset="1" style="stop-color:#0C0F38"/>
</radialGradient>
<rect x="-231" y="-44" class="st0" width="1546" height="1092"/>
<g>
	
		<linearGradient id="SVGID_2_" gradientUnits="userSpaceOnUse" x1="801.5358" y1="1184.161" x2="919.2233" y2="1184.161" gradientTransform="matrix(-0.7071 0.7071 -0.7071 -0.7071 1594.1508 855.6536)">
		<stop  offset="0" style="stop-color:#D4088C"/>
		<stop  offset="4.496314e-02" style="stop-color:#CC088C"/>
		<stop  offset="0.4621" style="stop-color:#85078A"/>
		<stop  offset="0.7624" style="stop-color:#590689"/>
		<stop  offset="0.914" style="stop-color:#480689"/>
	</linearGradient>
	<ellipse class="st1" cx="148.5" cy="626.7" rx="60.6" ry="57.1"/>
	
		<linearGradient id="SVGID_3_" gradientUnits="userSpaceOnUse" x1="580.1971" y1="1319.7002" x2="630.3715" y2="1319.7002" gradientTransform="matrix(-1 0 0 -1 832.1528 1543.2839)">
		<stop  offset="0" style="stop-color:#6EE8FC"/>
		<stop  offset="0.1572" style="stop-color:#6AE2FB"/>
		<stop  offset="0.3681" style="stop-color:#5ED1F7"/>
		<stop  offset="0.6094" style="stop-color:#4BB5F1"/>
		<stop  offset="0.8716" style="stop-color:#308EE8"/>
		<stop  offset="0.9624" style="stop-color:#267FE5"/>
	</linearGradient>
	<ellipse class="st2" cx="226.9" cy="223.6" rx="25.1" ry="23.6"/>
	
		<linearGradient id="SVGID_4_" gradientUnits="userSpaceOnUse" x1="552.0414" y1="914.7828" x2="663.572" y2="914.7828" gradientTransform="matrix(0.8955 0.445 -0.445 0.8955 813.1415 -633.5649)">
		<stop  offset="0" style="stop-color:#6EE8FC"/>
		<stop  offset="0.1572" style="stop-color:#6AE2FB"/>
		<stop  offset="0.3681" style="stop-color:#5ED1F7"/>
		<stop  offset="0.6094" style="stop-color:#4BB5F1"/>
		<stop  offset="0.8716" style="stop-color:#308EE8"/>
		<stop  offset="0.9624" style="stop-color:#267FE5"/>
	</linearGradient>
	<ellipse class="st3" cx="945.6" cy="453.7" rx="45.1" ry="42.5"/>
	<path class="st4" d="M957.1,625.7c-18.1,3.3-37.8-2-43.9-11.9c-6.1-9.9,3.7-20.5,21.8-23.9c18.1-3.3,37.8,2,43.9,11.9
		C985,611.7,975.3,622.4,957.1,625.7z"/>
	<ellipse class="st4" cx="149.2" cy="793.2" rx="48.2" ry="26.2"/>
	<path class="st4" d="M232.4,319.1c-9.1,1.7-18.9-1-21.9-5.9c-3-4.9,1.8-10.3,10.9-11.9c9.1-1.7,18.9,1,21.9,5.9
		C246.3,312.1,241.4,317.4,232.4,319.1z"/>
	<g>
		<ellipse class="st5" cx="392.6" cy="125.3" rx="6.4" ry="6.1"/>
		<ellipse class="st5" cx="279.9" cy="740.8" rx="7.7" ry="7.3"/>
		<path class="st6" d="M234.8,708.5c0,2.1-1.8,3.8-4,3.8c-2.2,0-4-1.7-4-3.8c0-2.1,1.8-3.8,4-3.8
			C233.1,704.7,234.8,706.4,234.8,708.5z"/>
		<path class="st6" d="M911.4,569.9c0,2.1-1.8,3.9-4.1,3.9c-2.3,0-4.1-1.7-4.1-3.9c0-2.1,1.8-3.9,4.1-3.9
			C909.6,566,911.4,567.8,911.4,569.9z"/>
		<g>
			<ellipse class="st6" cx="143.4" cy="308" rx="5.8" ry="5.5"/>
			<path class="st6" d="M582.6,108.8c0,3-2.6,5.5-5.8,5.5c-3.2,0-5.8-2.4-5.8-5.5c0-3,2.6-5.5,5.8-5.5
				C580,103.4,582.6,105.8,582.6,108.8z"/>
			<path class="st6" d="M172.8,295.9c0,1.7-1.4,3-3.2,3c-1.8,0-3.2-1.4-3.2-3c0-1.7,1.4-3,3.2-3
				C171.3,292.9,172.8,294.2,172.8,295.9z"/>
		</g>
		<path class="st7" d="M725.6,128.4c0,2-1.7,3.6-3.8,3.6c-2.1,0-3.8-1.6-3.8-3.6c0-2,1.7-3.6,3.8-3.6
			C723.9,124.8,725.6,126.4,725.6,128.4z"/>
	</g>
	<g>
		<g>
			<polygon class="st8" points="168.4,487.1 167,482.4 178,479.5 174.9,469.1 179.9,467.8 184.4,482.9 			"/>
		</g>
		<g>
			<polygon class="st8" points="158.6,503.4 157.3,498.7 168.3,495.8 165.2,485.4 170.2,484.1 174.6,499.2 			"/>
		</g>
		<g>
			<polygon class="st8" points="169,498.1 164.5,483.1 180.5,478.9 181.9,483.5 170.9,486.4 173.9,496.8 			"/>
		</g>
	</g>
	<path class="st8" d="M549.5,139.9c-6.8,0-12.3-5.2-12.3-11.6c0-6.4,5.5-11.6,12.3-11.6s12.3,5.2,12.3,11.6
		C561.8,134.7,556.3,139.9,549.5,139.9z M549.5,121.7c-3.9,0-7.1,3-7.1,6.7c0,3.7,3.2,6.7,7.1,6.7c3.9,0,7.1-3,7.1-6.7
		C556.6,124.7,553.4,121.7,549.5,121.7z"/>
	<path class="st8" d="M818.6,717.8l-13.9-13.1l13.9-13.1l13.9,13.1L818.6,717.8z M811.9,704.7l6.6,6.2l6.6-6.2l-6.6-6.2L811.9,704.7
		z"/>
	<g>
		<polygon class="st7" points="863,256.8 848.1,242.8 851.7,239.4 866.6,253.4 		"/>
		<polygon class="st7" points="851.7,256.8 848.1,253.4 863,239.4 866.6,242.8 		"/>
	</g>
</g>
<path class="st7" d="M97.2,409c0,2-1.7,3.6-3.8,3.6c-2.1,0-3.8-1.6-3.8-3.6s1.7-3.6,3.8-3.6C95.5,405.4,97.2,407,97.2,409z"/>
<g id="Website">
	<g id="Group-32" transform="translate(0.000000, 3.000000)">
		<path id="Case" class="st9" d="M396.3,584.8c0-2.8,2.4-5,5.3-5h185.7c2.9,0,5.3,2.2,5.3,5v119.7c0,2.8-2.4,5-5.3,5H401.7
			c-2.9,0-5.3-2.2-5.3-5V584.8z"/>
		<path class="st9" d="M408.3,593c0-1.2,1-2.2,2.3-2.2h167.6c1.3,0,2.3,1,2.3,2.2v89.2c0,1.2-1,2.2-2.3,2.2H410.6
			c-1.3,0-2.3-1-2.3-2.2V593z"/>
		<path class="st9" d="M480.5,709.5h28.2l1.9,23.2h-32L480.5,709.5z"/>
		<path id="Keyboard" class="st9" d="M466.9,737.7v-2.4c0-1.4,1.2-2.6,2.8-2.6h50c1.5,0,2.8,1.2,2.8,2.6v2.4c0,0.1-0.1,0.2-0.2,0.2
			h-55.1C466.9,737.9,466.9,737.8,466.9,737.7z"/>
		<ellipse id="Oval-6" class="st10" cx="494.6" cy="697.9" rx="3.5" ry="3.3"/>
		<path class="st9" d="M382.8,668.2h28.6c2.5,0,4.6,1.9,4.6,4.3v61c0,2.4-2,4.3-4.6,4.3h-28.6c-2.5,0-4.6-1.9-4.6-4.3v-61
			C378.2,670.1,380.2,668.2,382.8,668.2z"/>
		<path class="st9" d="M378.2,675.9H416v51.6h-37.8V675.9z"/>
		<path id="Rectangle-11" class="st11" d="M388.9,671.3h16.6c0.4,0,0.8,0.3,0.8,0.7l0,0c0,0.4-0.3,0.7-0.8,0.7h-16.6
			c-0.4,0-0.8-0.3-0.8-0.7l0,0C388.1,671.6,388.5,671.3,388.9,671.3z"/>
		<path class="st11" d="M397.1,730.5L397.1,730.5c1.2,0,2.2,0.9,2.2,2v0c0,1.1-1,2-2.2,2h0c-1.2,0-2.2-0.9-2.2-2v0
			C395,731.4,396,730.5,397.1,730.5z"/>
		<ellipse class="st9" cx="388.9" cy="701.6" rx="2.9" ry="2.7"/>
		<path class="st11" d="M396.3,696.9h11.8c0.4,0,0.8,0.3,0.8,0.7l0,0c0,0.4-0.3,0.7-0.8,0.7h-11.8c-0.4,0-0.8-0.3-0.8-0.7l0,0
			C395.5,697.3,395.9,696.9,396.3,696.9z"/>
		<path class="st11" d="M396.3,700.9h8c0.4,0,0.8,0.3,0.8,0.7l0,0c0,0.4-0.3,0.7-0.8,0.7h-8c-0.4,0-0.8-0.3-0.8-0.7l0,0
			C395.5,701.2,395.9,700.9,396.3,700.9z"/>
		<path class="st11" d="M396.3,704.8h4.2c0.4,0,0.8,0.3,0.8,0.7l0,0c0,0.4-0.3,0.7-0.8,0.7h-4.2c-0.4,0-0.8-0.3-0.8-0.7l0,0
			C395.5,705.2,395.9,704.8,396.3,704.8z"/>
		<ellipse id="Oval-7" class="st9" cx="358.8" cy="674.4" rx="29.3" ry="27.5"/>
		<path class="st9" d="M542.8,641.1h132c2.5,0,4.6,1.9,4.6,4.3V726c0,2.4-2,4.3-4.6,4.3h-132c-2.5,0-4.6-1.9-4.6-4.3v-80.6
			C538.2,643,540.2,641.1,542.8,641.1z"/>
		<path class="st9" d="M528.5,730.5v3.6c0,2.1,1.8,3.8,4,3.8H685c2.2,0,4-1.7,4-3.8v-3.6c0-0.1-0.1-0.2-0.2-0.2H528.6
			C528.5,730.3,528.5,730.4,528.5,730.5z"/>
		<path id="Notch" class="st9" d="M619.3,730.4l-21.4,0c0.9,2.1,3,3.6,5.5,3.6h10.3C616.2,734,618.4,732.5,619.3,730.4z"/>
		<path id="Screen" class="st9" d="M546,649.6h125.4c0.8,0,1.5,0.6,1.5,1.4v69.6c0,0.8-0.7,1.4-1.5,1.4H546c-0.8,0-1.5-0.6-1.5-1.4
			V651C544.5,650.2,545.2,649.6,546,649.6z"/>
		<ellipse id="Oval-3" class="st11" cx="490.3" cy="592.5" rx="1" ry="0.9"/>
		<path class="st9" d="M435.8,566.3h88.1v79.5c0,2.8-2.4,5-5.3,5h-77.4c-2.9,0-5.3-2.3-5.3-5V566.3z"/>
		<path class="st9" d="M435.8,560.9c0-2.8,2.4-5,5.3-5h77.4c2.9,0,5.3,2.2,5.3,5v5.4h-88.1V560.9z"/>
		<ellipse id="Oval-5" class="st11" cx="446.5" cy="561.1" rx="1.7" ry="1.6"/>
		<ellipse class="st11" cx="452.2" cy="561.1" rx="1.7" ry="1.6"/>
		<ellipse class="st11" cx="457.9" cy="561.1" rx="1.7" ry="1.6"/>
		<path class="st11" d="M447.2,618.7h1.9c0.4,0,0.8,0.3,0.8,0.7l0,0c0,0.4-0.3,0.7-0.8,0.7h-1.9c-0.4,0-0.8-0.3-0.8-0.7l0,0
			C446.5,619,446.8,618.7,447.2,618.7z"/>
		<path class="st11" d="M447.2,579.7h1.9c0.4,0,0.8,0.3,0.8,0.7l0,0c0,0.4-0.3,0.7-0.8,0.7h-1.9c-0.4,0-0.8-0.3-0.8-0.7l0,0
			C446.5,580.1,446.8,579.7,447.2,579.7z"/>
		<path class="st11" d="M452.9,579.7h5.1c0.4,0,0.8,0.3,0.8,0.7s-0.3,0.7-0.8,0.7h-5.1c-0.4,0-0.8-0.3-0.8-0.7
			S452.5,579.7,452.9,579.7z"/>
		<path class="st11" d="M461.5,579.7h5.1c0.4,0,0.8,0.3,0.8,0.7s-0.3,0.7-0.8,0.7h-5.1c-0.4,0-0.8-0.3-0.8-0.7
			S461.1,579.7,461.5,579.7z"/>
		<path class="st11" d="M470.1,579.7h9.5c0.4,0,0.8,0.3,0.8,0.7s-0.3,0.7-0.8,0.7h-9.5c-0.4,0-0.8-0.3-0.8-0.7
			S469.7,579.7,470.1,579.7z"/>
		<path class="st11" d="M483.1,579.7h14.1c0.4,0,0.8,0.3,0.8,0.7s-0.3,0.7-0.8,0.7h-14.1c-0.4,0-0.8-0.3-0.8-0.7
			S482.7,579.7,483.1,579.7z"/>
		<path class="st11" d="M447.2,586.9h1.9c0.4,0,0.8,0.3,0.8,0.7l0,0c0,0.4-0.3,0.7-0.8,0.7h-1.9c-0.4,0-0.8-0.3-0.8-0.7l0,0
			C446.5,587.2,446.8,586.9,447.2,586.9z"/>
		<path class="st11" d="M447.2,597.2h1.9c0.4,0,0.8,0.3,0.8,0.7l0,0c0,0.4-0.3,0.7-0.8,0.7h-1.9c-0.4,0-0.8-0.3-0.8-0.7l0,0
			C446.5,597.5,446.8,597.2,447.2,597.2z"/>
		<path class="st11" d="M447.2,604.3h1.9c0.4,0,0.8,0.3,0.8,0.7l0,0c0,0.4-0.3,0.7-0.8,0.7h-1.9c-0.4,0-0.8-0.3-0.8-0.7l0,0
			C446.5,604.7,446.8,604.3,447.2,604.3z"/>
		<path class="st11" d="M447.2,611.5h1.9c0.4,0,0.8,0.3,0.8,0.7l0,0c0,0.4-0.3,0.7-0.8,0.7h-1.9c-0.4,0-0.8-0.3-0.8-0.7l0,0
			C446.5,611.8,446.8,611.5,447.2,611.5z"/>
		<path class="st11" d="M447.2,625.9h1.9c0.4,0,0.8,0.3,0.8,0.7l0,0c0,0.4-0.3,0.7-0.8,0.7h-1.9c-0.4,0-0.8-0.3-0.8-0.7l0,0
			C446.5,626.2,446.8,625.9,447.2,625.9z"/>
		<path class="st11" d="M447.2,633h1.9c0.4,0,0.8,0.3,0.8,0.7l0,0c0,0.4-0.3,0.7-0.8,0.7h-1.9c-0.4,0-0.8-0.3-0.8-0.7l0,0
			C446.5,633.4,446.8,633,447.2,633z"/>
		<path class="st11" d="M452.9,586.9h11.8c0.4,0,0.8,0.3,0.8,0.7l0,0c0,0.4-0.3,0.7-0.8,0.7h-11.8c-0.4,0-0.8-0.3-0.8-0.7l0,0
			C452.2,587.2,452.5,586.9,452.9,586.9z"/>
		<path class="st11" d="M468.2,586.9h21.4c0.4,0,0.8,0.3,0.8,0.7l0,0c0,0.4-0.3,0.7-0.8,0.7h-21.4c-0.4,0-0.8-0.3-0.8-0.7l0,0
			C467.4,587.2,467.8,586.9,468.2,586.9z"/>
		<path class="st11" d="M493,586.9h8c0.4,0,0.8,0.3,0.8,0.7l0,0c0,0.4-0.3,0.7-0.8,0.7h-8c-0.4,0-0.8-0.3-0.8-0.7l0,0
			C492.2,587.2,492.6,586.9,493,586.9z"/>
		<path class="st12" d="M452.9,597.2h8c0.4,0,0.8,0.3,0.8,0.7l0,0c0,0.4-0.3,0.7-0.8,0.7h-8c-0.4,0-0.8-0.3-0.8-0.7l0,0
			C452.2,597.5,452.5,597.2,452.9,597.2z"/>
		<path class="st12" d="M464.4,597.2h8c0.4,0,0.8,0.3,0.8,0.7l0,0c0,0.4-0.3,0.7-0.8,0.7h-8c-0.4,0-0.8-0.3-0.8-0.7l0,0
			C463.6,597.5,464,597.2,464.4,597.2z"/>
		<path class="st12" d="M475.8,597.2h4.2c0.4,0,0.8,0.3,0.8,0.7l0,0c0,0.4-0.3,0.7-0.8,0.7h-4.2c-0.4,0-0.8-0.3-0.8-0.7l0,0
			C475.1,597.5,475.4,597.2,475.8,597.2z"/>
		<path class="st12" d="M452.9,604.3h17.5c0.4,0,0.8,0.3,0.8,0.7l0,0c0,0.4-0.3,0.7-0.8,0.7h-17.5c-0.4,0-0.8-0.3-0.8-0.7l0,0
			C452.2,604.7,452.5,604.3,452.9,604.3z"/>
		<path class="st12" d="M473.9,604.3h11.8c0.4,0,0.8,0.3,0.8,0.7l0,0c0,0.4-0.3,0.7-0.8,0.7h-11.8c-0.4,0-0.8-0.3-0.8-0.7l0,0
			C473.2,604.7,473.5,604.3,473.9,604.3z"/>
		<path class="st12" d="M452.9,611.5h17.5c0.4,0,0.8,0.3,0.8,0.7l0,0c0,0.4-0.3,0.7-0.8,0.7h-17.5c-0.4,0-0.8-0.3-0.8-0.7l0,0
			C452.2,611.8,452.5,611.5,452.9,611.5z"/>
		<path class="st12" d="M473.9,611.5h23.3c0.4,0,0.8,0.3,0.8,0.7l0,0c0,0.4-0.3,0.7-0.8,0.7h-23.3c-0.4,0-0.8-0.3-0.8-0.7l0,0
			C473.2,611.8,473.5,611.5,473.9,611.5z"/>
		<path class="st12" d="M452.9,618.7h11.8c0.4,0,0.8,0.3,0.8,0.7l0,0c0,0.4-0.3,0.7-0.8,0.7h-11.8c-0.4,0-0.8-0.3-0.8-0.7l0,0
			C452.2,619,452.5,618.7,452.9,618.7z"/>
		<path class="st12" d="M468.2,618.7H480c0.4,0,0.8,0.3,0.8,0.7l0,0c0,0.4-0.3,0.7-0.8,0.7h-11.8c-0.4,0-0.8-0.3-0.8-0.7l0,0
			C467.4,619,467.8,618.7,468.2,618.7z"/>
		<path class="st12" d="M483.5,618.7h6.1c0.4,0,0.8,0.3,0.8,0.7l0,0c0,0.4-0.3,0.7-0.8,0.7h-6.1c-0.4,0-0.8-0.3-0.8-0.7l0,0
			C482.7,619,483,618.7,483.5,618.7z"/>
		<path class="st12" d="M452.9,625.9h23.3c0.4,0,0.8,0.3,0.8,0.7l0,0c0,0.4-0.3,0.7-0.8,0.7h-23.3c-0.4,0-0.8-0.3-0.8-0.7l0,0
			C452.2,626.2,452.5,625.9,452.9,625.9z"/>
		<path class="st12" d="M452.9,633h9.9c0.4,0,0.8,0.3,0.8,0.7l0,0c0,0.4-0.3,0.7-0.8,0.7h-9.9c-0.4,0-0.8-0.3-0.8-0.7l0,0
			C452.2,633.4,452.5,633,452.9,633z"/>
		<path class="st9" d="M608,622.6h104.5v70c0,2.8-2.4,5-5.3,5h-93.8c-2.9,0-5.3-2.2-5.3-5V622.6z"/>
		<path class="st9" d="M608,618.7c0-2.8,2.4-5,5.3-5h93.8c2.9,0,5.3,2.2,5.3,5v5.4H608V618.7z"/>
		<ellipse class="st11" cx="616.2" cy="618.9" rx="1.7" ry="1.6"/>
		<ellipse class="st11" cx="621.9" cy="618.9" rx="1.7" ry="1.6"/>
		<ellipse class="st11" cx="627.6" cy="618.9" rx="1.7" ry="1.6"/>
		<ellipse class="st13" cx="672.6" cy="660.1" rx="19.1" ry="17.9"/>
		<path id="Rectangle-12" class="st9" d="M670.5,640v4.3h4.6V640H670.5z"/>
		<path class="st9" d="M670.3,675.9v4.3h4.6v-4.3H670.3z"/>
		<path class="st9" d="M651.3,658.2v4.3h4.6v-4.3H651.3z"/>
		<path class="st9" d="M689.2,658.2v4.3h4.6v-4.3H689.2z"/>
		<line id="Line" class="st14" x1="691.7" y1="644" x2="691.7" y2="657.5"/>
		<line class="st14" x1="691.7" y1="662.8" x2="691.7" y2="676.3"/>
		<ellipse class="st11" cx="691.7" cy="643.5" rx="2.3" ry="2.2"/>
		<ellipse class="st11" cx="691.7" cy="677.6" rx="2.3" ry="2.2"/>
		<g id="Group-60" transform="translate(439.463238, 115.519364)">
			<path id="Rectangle-15" class="st9" d="M189.5,522.9h7.2c1.3,0,2.3,1,2.3,2.2v6.8c0,1.2-1,2.2-2.3,2.2h-7.2c-1.3,0-2.3-1-2.3-2.2
				v-6.8C187.2,523.9,188.2,522.9,189.5,522.9z"/>
			<path class="st9" d="M189.5,539.1h7.2c1.3,0,2.3,1,2.3,2.2v6.8c0,1.2-1,2.2-2.3,2.2h-7.2c-1.3,0-2.3-1-2.3-2.2v-6.8
				C187.2,540,188.2,539.1,189.5,539.1z"/>
			<path class="st9" d="M189.5,555.2h7.2c1.3,0,2.3,1,2.3,2.2v6.8c0,1.2-1,2.2-2.3,2.2h-7.2c-1.3,0-2.3-1-2.3-2.2v-6.8
				C187.2,556.2,188.2,555.2,189.5,555.2z"/>
		</g>
		<ellipse id="Oval-8" class="st9" cx="767.2" cy="720.8" rx="11.4" ry="10.8"/>
		<ellipse class="st9" cx="767.2" cy="720.8" rx="6.7" ry="6.3"/>
		<ellipse class="st9" cx="751.9" cy="704.5" rx="3.8" ry="3.6"/>
		<path id="Rectangle-16" class="st9" d="M735.1,703.6c-0.4,0-0.8,0.3-0.8,0.7v30.2c0,2,1.7,3.6,3.8,3.6h26.3c2.1,0,3.8-1.6,3.8-3.6
			v-30.2c0-0.4-0.3-0.7-0.8-0.7H735.1z"/>
		<path class="st9" d="M752.9,713.3h5.3c1.3,0,2.3,1,2.3,2.2v7.2c0,1.2-1,2.2-2.3,2.2h-5.3c-1.3,0-2.3-1-2.3-2.2v-7.2
			C750.6,714.2,751.6,713.3,752.9,713.3z"/>
		<line id="Line-2" class="st14" x1="755.5" y1="703.8" x2="755.5" y2="712"/>
		<path class="st9" d="M712.6,737.9c6.3,0,11.4,0,11.4,0c0-5.9-5.1-10.8-11.4-10.8c-6.3,0-11.4,4.8-11.4,10.8
			C701.2,737.9,706.3,737.9,712.6,737.9z"/>
		<path class="st11" d="M712.6,726.7L712.6,726.7c0.4,0,0.8,0.3,0.8,0.7v0.9c0,0.4-0.3,0.7-0.8,0.7l0,0c-0.4,0-0.8-0.3-0.8-0.7v-0.9
			C711.9,727,712.2,726.7,712.6,726.7z"/>
		<path id="Rectangle-17" class="st9" d="M316,716.7c-6.2,0-11.2,4.7-11.2,10.6c0,5.8,5,10.6,11.2,10.6h46.2c0.6,0,1.1-0.5,1.1-1.1
			v-1.7c0-0.8-0.6-1.4-1.4-1.4c-5.2-0.4-8-2.5-8-6.4c0-3.9,2.8-6.1,8-6.4c0.8-0.1,1.4-0.7,1.4-1.4v-1.7c0-0.6-0.5-1.1-1.1-1.1H316z"
			/>
		<path id="Rectangle-19" class="st10" d="M362.8,734.1c0,0.2-0.1,0.3-0.3,0.3l0,0H357h-41.2c-4.2,0-7.6-3.2-7.6-7.2
			s3.4-7.2,7.6-7.2H357h5.4l0,0c0.2,0,0.3,0.1,0.3,0.3"/>
		<path id="Rectangle-18" class="st11" d="M315.1,724.2h38.5c0.4,0,0.8,0.3,0.8,0.7l0,0c0,0.4-0.3,0.7-0.8,0.7h-38.5
			c-0.4,0-0.8-0.3-0.8-0.7l0,0C314.3,724.5,314.7,724.2,315.1,724.2z"/>
		<path class="st11" d="M315.1,728.7h38.5c0.4,0,0.8,0.3,0.8,0.7v0c0,0.4-0.3,0.7-0.8,0.7h-38.5c-0.4,0-0.8-0.3-0.8-0.7v0
			C314.3,729,314.7,728.7,315.1,728.7z"/>
		<path id="Shape" class="st15" d="M348.7,680.8c-0.9-0.8-1.9-1.6-2.8-2.3c-1.5-1.2-3-2.5-4.5-3.7c-0.3-0.3-0.7-0.6-1-0.9
			c0,0.4,0,0.8,0,1.1c0.9-0.8,1.9-1.6,2.8-2.3c1.5-1.2,3-2.5,4.5-3.7c0.3-0.3,0.7-0.6,1-0.9c0.3-0.3,0.3-0.9,0-1.1
			c-0.4-0.3-0.9-0.3-1.2,0c-0.9,0.8-1.9,1.6-2.8,2.3c-1.5,1.2-3,2.5-4.5,3.7c-0.3,0.3-0.7,0.6-1,0.9c-0.3,0.3-0.3,0.9,0,1.1
			c0.9,0.8,1.9,1.6,2.8,2.3c1.5,1.2,3,2.5,4.5,3.7c0.3,0.3,0.7,0.6,1,0.9c0.3,0.3,0.9,0.3,1.2,0C349,681.6,349,681.1,348.7,680.8
			L348.7,680.8z"/>
		<path class="st15" d="M366,668.1c0.9,0.8,1.9,1.6,2.8,2.3c1.5,1.2,3,2.5,4.5,3.7c0.3,0.3,0.7,0.6,1,0.9c0-0.4,0-0.8,0-1.1
			c-0.9,0.8-1.9,1.6-2.8,2.3c-1.5,1.2-3,2.5-4.5,3.7c-0.3,0.3-0.7,0.6-1,0.9c-0.3,0.3-0.3,0.9,0,1.1c0.4,0.3,0.9,0.3,1.2,0
			c0.9-0.8,1.9-1.6,2.8-2.3c1.5-1.2,3-2.5,4.5-3.7c0.3-0.3,0.7-0.6,1-0.9c0.3-0.3,0.3-0.9,0-1.1c-0.9-0.8-1.9-1.6-2.8-2.3
			c-1.5-1.2-3-2.5-4.5-3.7c-0.3-0.3-0.7-0.6-1-0.9c-0.3-0.3-0.9-0.3-1.2,0C365.7,667.3,365.6,667.8,366,668.1L366,668.1z"/>
		<path class="st15" d="M355.8,685.6c0.3-0.7,0.5-1.4,0.8-2.2c0.6-1.7,1.2-3.5,1.8-5.2c0.7-2.1,1.5-4.2,2.2-6.3
			c0.6-1.8,1.3-3.6,1.9-5.4c0.3-0.9,0.6-1.7,0.9-2.6c0,0,0,0,0,0c0.1-0.4-0.2-0.9-0.6-1c-0.5-0.1-0.9,0.1-1.1,0.6
			c-0.3,0.7-0.5,1.4-0.8,2.2c-0.6,1.7-1.2,3.5-1.8,5.2c-0.7,2.1-1.5,4.2-2.2,6.3c-0.6,1.8-1.3,3.6-1.9,5.4c-0.3,0.9-0.6,1.7-0.9,2.6
			c0,0,0,0,0,0c-0.1,0.4,0.2,0.9,0.6,1C355.2,686.2,355.7,686,355.8,685.6L355.8,685.6z"/>
	</g>
</g>
</svg>
