<?xml version="1.0" encoding="utf-8"?>
<!-- Generator: Adobe Illustrator 23.0.0, SVG Export Plug-In . SVG Version: 6.00 Build 0)  -->
<svg version="1.1" id="Layer_1" xmlns="http://www.w3.org/2000/svg" xmlns:xlink="http://www.w3.org/1999/xlink" x="0px" y="0px"
	 viewBox="0 0 400 400" style="enable-background:new 0 0 400 400;" xml:space="preserve">
<style type="text/css">
	.st0{fill:#BDCCD4;}
	.st1{fill:#FFFFFF;stroke:#3F4749;stroke-width:2;stroke-linecap:round;stroke-linejoin:round;stroke-miterlimit:10;}
	.st2{fill:#7FEFD2;stroke:#3F4749;stroke-width:2;stroke-linecap:round;stroke-linejoin:round;stroke-miterlimit:10;}
	.st3{fill:#3F4749;stroke:#3F4749;stroke-width:2;stroke-linecap:round;stroke-linejoin:round;stroke-miterlimit:10;}
	.st4{fill:none;stroke:#FF64BD;stroke-width:2;stroke-linecap:round;stroke-linejoin:round;stroke-miterlimit:10;}
	.st5{fill:none;stroke:#22ABFF;stroke-width:2;stroke-linecap:round;stroke-linejoin:round;stroke-miterlimit:10;}
	.st6{fill:none;stroke:#FFBD66;stroke-width:2;stroke-linecap:round;stroke-linejoin:round;stroke-miterlimit:10;}
</style>
<circle class="st0" cx="202.5" cy="157.5" r="147.5"/>
<path id="XMLID_2_" class="st1" d="M321.8,213.5h-238v3c0,8,6.5,14.5,14.5,14.5h209c8,0,14.5-6.5,14.5-14.5V213.5z"/>
<path id="XMLID_4_" class="st1" d="M289.8,101.5H115.7c-5.6,0-10.2,4.6-10.2,10.2v101.8H300V111.7
	C300,106.1,295.4,101.5,289.8,101.5z"/>
<g id="XMLID_5_">
	<rect id="XMLID_8_" x="115.5" y="111.5" class="st2" width="174.5" height="92"/>
	<rect id="XMLID_7_" x="115.5" y="111.5" class="st2" width="174.5" height="92"/>
</g>
<path id="XMLID_6_" class="st3" d="M240.4,188.9h-75.3c-3.3,0-6-2.7-6-6V133c0-3.3,2.7-6,6-6h75.3c3.3,0,6,2.7,6,6v49.9
	C246.4,186.2,243.7,188.9,240.4,188.9z"/>
<g id="XMLID_15_">
	<g id="XMLID_9_">
		<path id="XMLID_13_" class="st4" d="M198.7,170.4L198.7,170.4c-1.9,0-3.4-1.5-3.4-3.4v-4.4l-3.6-1.7l3.6-1.7v-4.4
			c0-1.9,1.5-3.4,3.4-3.4l0,0"/>
		<path id="XMLID_11_" class="st4" d="M206.6,170.4L206.6,170.4c1.9,0,3.4-1.5,3.4-3.4v-4.4l3.6-1.7l-3.6-1.7v-4.4
			c0-1.9-1.5-3.4-3.4-3.4l0,0"/>
	</g>
	<line id="XMLID_16_" class="st5" x1="189.5" y1="170.4" x2="177.5" y2="170.4"/>
	<line id="XMLID_17_" class="st6" x1="215.7" y1="170.4" x2="228" y2="151.4"/>
</g>
</svg>
