<?xml version="1.0" encoding="utf-8"?>
<!-- Generator: Adobe Illustrator 23.0.0, SVG Export Plug-In . SVG Version: 6.00 Build 0)  -->
<svg version="1.1" id="Layer_1" xmlns="http://www.w3.org/2000/svg" xmlns:xlink="http://www.w3.org/1999/xlink" x="0px" y="0px"
	 viewBox="0 0 400 400" style="enable-background:new 0 0 400 400;" xml:space="preserve">
<style type="text/css">
	.st0{fill:#BDCCD4;}
	.st1{fill:#C4CBCC;stroke:#3F4749;stroke-width:2;stroke-linecap:round;stroke-linejoin:round;stroke-miterlimit:10;}
	.st2{fill:#EDEDED;stroke:#3F4749;stroke-width:2;stroke-linecap:round;stroke-linejoin:round;stroke-miterlimit:10;}
	.st3{fill:#FFFFFF;stroke:#3F4749;stroke-width:2;stroke-linecap:round;stroke-linejoin:round;stroke-miterlimit:10;}
	.st4{fill:#545C5E;stroke:#3F4749;stroke-width:2;stroke-linecap:round;stroke-linejoin:round;stroke-miterlimit:10;}
	.st5{fill:#7FEFD2;stroke:#3F4749;stroke-width:2;stroke-linecap:round;stroke-linejoin:round;stroke-miterlimit:10;}
	.st6{fill:none;stroke:#3F4749;stroke-width:2;stroke-linecap:round;stroke-linejoin:round;stroke-miterlimit:10;}
	.st7{fill:#D5DADB;stroke:#3F4749;stroke-width:2;stroke-linecap:round;stroke-linejoin:round;stroke-miterlimit:10;}
	.st8{fill:#22ABFF;stroke:#3F4749;stroke-width:2;stroke-linecap:round;stroke-linejoin:round;stroke-miterlimit:10;}
	.st9{fill:#FFBD66;stroke:#3F4749;stroke-width:2;stroke-linecap:round;stroke-linejoin:round;stroke-miterlimit:10;}
	.st10{fill:#FF64BD;stroke:#3F4749;stroke-width:2;stroke-linecap:round;stroke-linejoin:round;stroke-miterlimit:10;}
	.st11{fill:#3F4749;stroke:#3F4749;stroke-width:2;stroke-linecap:round;stroke-linejoin:round;stroke-miterlimit:10;}
</style>
<circle class="st0" cx="202.5" cy="157.5" r="147.5"/>
<path id="XMLID_171_" class="st1" d="M254.1,214.3c-5.1-1.4-12.3-2.3-20.2-2.3c-7.9,0-15.1,0.9-20.2,2.3h-7.9v5.2
	c0,4.1,12.6,7.4,28,7.4c15.5,0,28-3.3,28-7.4v-5.2H254.1z"/>
<ellipse id="XMLID_167_" class="st2" cx="233.9" cy="214.3" rx="28" ry="7.4"/>
<path id="XMLID_158_" class="st3" d="M142.5,181.1c0,11.6,9.4,21,21,21h140.8c11.6,0,21-9.4,21-21v-0.5H142.5V181.1z"/>
<path id="XMLID_160_" class="st4" d="M304.3,73.2H163.5c-11.6,0-21,9.4-21,21v86.4h182.8V94.2C325.3,82.6,315.9,73.2,304.3,73.2z"/>
<g id="XMLID_153_">
	<path id="XMLID_159_" class="st5" d="M152,180.6V94.2c0-6.3,5.1-11.5,11.5-11.5h140.8c6.3,0,11.5,5.1,11.5,11.5v86.4H152z"/>
	<path id="XMLID_157_" class="st5" d="M152,180.6V94.2c0-6.3,5.1-11.5,11.5-11.5h140.8c6.3,0,11.5,5.1,11.5,11.5v86.4H152z"/>
</g>
<g id="XMLID_162_">
	<line id="XMLID_165_" class="st6" x1="214.9" y1="125.1" x2="228.1" y2="111.9"/>
	<line id="XMLID_164_" class="st6" x1="239.7" y1="125.1" x2="252.9" y2="111.9"/>
	<line id="XMLID_163_" class="st6" x1="222" y1="130.4" x2="245.8" y2="106.6"/>
</g>
<rect id="XMLID_166_" x="219.5" y="202.1" class="st2" width="28.9" height="12.2"/>
<g id="XMLID_128_">
	<polygon id="XMLID_114_" class="st3" points="158.5,242.6 91.6,242.7 80,231.1 80,131 158.5,131 	"/>
	<polygon id="XMLID_120_" class="st7" points="80,231.1 91.6,242.7 91.6,231.1 	"/>
	<line id="XMLID_121_" class="st6" x1="97.1" y1="144.7" x2="119.3" y2="144.7"/>
	<line id="XMLID_122_" class="st6" x1="97.1" y1="149" x2="119.3" y2="149"/>
	<line id="XMLID_123_" class="st6" x1="97.1" y1="153.3" x2="119.3" y2="153.3"/>
	<line id="XMLID_124_" class="st6" x1="97.1" y1="157.7" x2="119.3" y2="157.7"/>
	<line id="XMLID_125_" class="st6" x1="97.1" y1="168.8" x2="142.5" y2="168.8"/>
	<line id="XMLID_126_" class="st6" x1="97.1" y1="173.8" x2="142.5" y2="173.8"/>
	<line id="XMLID_127_" class="st6" x1="97.1" y1="178.9" x2="142.5" y2="178.9"/>
	<line id="XMLID_132_" class="st6" x1="97.1" y1="204.3" x2="142.5" y2="204.3"/>
	<line id="XMLID_133_" class="st6" x1="97.1" y1="209.4" x2="142.5" y2="209.4"/>
	<line id="XMLID_134_" class="st6" x1="97.1" y1="214.5" x2="142.5" y2="214.5"/>
	<circle id="XMLID_119_" class="st8" cx="103.8" cy="190.6" r="6.8"/>
	<circle id="XMLID_129_" class="st9" cx="138.1" cy="190.6" r="4.5"/>
	<polygon id="XMLID_130_" class="st10" points="116.1,196.9 122.5,185.5 129,196.9 	"/>
</g>
<g id="XMLID_131_">
	
		<rect id="XMLID_140_" x="166.9" y="158" transform="matrix(-1 8.367800e-03 -8.367800e-03 -1 342.3462 371.166)" class="st5" width="7.1" height="56.6"/>
	<polygon id="XMLID_139_" class="st9" points="174.2,214.6 170.7,222.2 167.1,214.6 	"/>
	<polygon id="XMLID_138_" class="st11" points="172.1,219.2 169.3,219.2 170.7,222.2 	"/>
	<line id="XMLID_137_" class="st6" x1="170.2" y1="158" x2="170.6" y2="214.6"/>
	
		<rect id="XMLID_136_" x="166.6" y="154.8" transform="matrix(-1 8.367800e-03 -8.367800e-03 -1 341.5962 311.4229)" class="st1" width="7.1" height="3.2"/>
	
		<rect id="XMLID_135_" x="166.6" y="148.8" transform="matrix(-1 8.367800e-03 -8.367800e-03 -1 341.4807 302.2176)" class="st2" width="7.1" height="6"/>
</g>
</svg>
