<?xml version="1.0" encoding="utf-8"?>
<!-- Generator: Adobe Illustrator 23.0.0, SVG Export Plug-In . SVG Version: 6.00 Build 0)  -->
<svg version="1.1" id="Layer_1" xmlns="http://www.w3.org/2000/svg" xmlns:xlink="http://www.w3.org/1999/xlink" x="0px" y="0px"
	 viewBox="0 0 1265 449" style="enable-background:new 0 0 1265 449;" xml:space="preserve">
<style type="text/css">
	.st0{fill:none;stroke:#FFFFFF;stroke-width:3;stroke-miterlimit:10;}
</style>
<g>
	<path class="st0" d="M418,53.9c-9.4,14-33.3,22-76.9,26.5c-10.3,1.4-25.6,1.8-40,2.3c-4.5,0.5-9,0.5-13,0.5
		c-5.4,0.4-10.3-3.6-10.3-9.5c0-5.4,4-9.9,9.4-10.3c4,0,8.5,0,13-0.5c13.5-0.4,28.8-0.9,38.7-2.3c45-4.5,59.4-12.1,63.5-18
		c0.9-1.3,1.8-3.6,0.9-7.6c-0.9-3.1-4.5-5.8-7.6-7.2c-9-3.6-23-4.5-38.3-2.3c-18,2.3-36.9,9-54.4,18.9c-27,15.3-48.1,41.4-62.1,77.4
		c-19.8,50.8-39.6,94-62.5,147.1C144,349.5,112,366.2,74.7,366.2c-27.4,0-66.1-20.3-66.6-64.8c0-19.8,8.1-39.1,22.5-54.5
		c13.9-14.8,32.4-23.8,49.9-25.2c21.1-0.9,30.6,9,34.6,15.3c6.3,9.5,6.8,22.5,1.4,32.8c-4.9,9-13.5,14.4-22.9,14.4
		c-5.4,0.5-9.9-4-9.9-9.4c0-5.8,4-10.3,9.4-10.3c2.3,0,4.5-1.4,5.9-4.1c2.3-4,1.8-9-0.5-13c-3.6-5.4-11.3-5.9-17.1-5.9
		c-24.8,1.4-53.5,27.9-53.5,59.8c0,14.4,5.4,26.1,16.2,34.6c10.4,7.7,22.5,10.3,30.6,10.3c25.2,0,52.2-6.3,85.5-85.5
		c22.9-52.6,42.3-95.4,62.1-146.2c0.4-1.3,1.3-2.7,1.8-4s0.9-3.1,2.3-5.4c7.6-18.9-2.3-20.7-9.5-20.3c-1.3,0-2.3,0-3.6,0
		c-0.5,0-1.4,0.5-1.8,0.5h0.5c-58.5,4-90,7.6-107.5,22.5c-7.6,6.3-10.8,14.4-8.5,21.6c2.3,6.3,7.6,10.4,15.8,11.3
		c5.4,0.9,9.4,5.4,9,10.8c-0.4,5.4-4.9,9-9.9,9c-0.4,0-0.9,0-0.9,0c-16.2-1.8-28.3-11.3-32.8-25.2c-2.3-7.2-1.8-14.9,0.4-22.5
		c2.7-7.6,7.6-14.4,14.4-19.8c23-19.8,58.9-23.4,127.8-28.3c0,0,25.6-1.4,44.1-16.7c0.9-0.9,1.4-1.3,1.8-1.8H265c0,0-0.5,0,0,0h0.5
		c1.3-1.4,21.1-16.6,34.6-22.9c0.5,0,0.9-0.5,1.4-0.5c17.1-8.5,35.1-14.4,53.1-17.1c18.9-2.7,36.5-1.4,48.6,4
		c13.5,5.9,18,14.4,19.3,20.7C424.8,39,423,47.1,418,53.9z"/>
	<path class="st0" d="M369.4,223.1c-3.2,4.1-6.3,8.1-9.9,11.3v0.5c-8.5,9-17.5,15.3-26.5,18.9c-2.3,0.5-4,1.4-6.3,1.8
		c0,0-11.3,3.1-24.3,21.1c-13.9,20.3-31,31.5-48.6,31.5c-3.1,0-6.8-0.5-10.4-1.4c-16.2-4-30.6-20.7-22-54.9
		c4-15.7,10.8-30.1,20.3-42.3c8.1-10.8,18.4-19.4,28.8-24.3c13-6.3,25.6-7.2,35.5-3.2c4.9,2.7,7.2,8.6,4.9,13.5c-2.3,5-8.1,7.2-13,5
		c-4.5-2.3-11.3-1.4-18.4,2.3c-14,6.8-31.5,24.7-38.7,53.5c-2.3,8.1-5.4,27.9,8.1,31.5c8.6,2.3,18-1.4,27.9-10.8
		c2.7-3.2,5.9-6.8,8.5-10.8h0.5c5-8.5,2.7-17.5,0.9-20.7c-0.4-0.4-0.4-0.9-0.9-1.8c-0.5-1.4-0.9-3.1-1.4-4.5
		c-0.4-0.9-0.4-2.3-0.4-3.1c0-7.2,4-13.5,11.2-17.1c10.8-4.9,17.6,0.5,18.9,2.3c2.3,2.3,3.2,5,4.1,8.1c1.4,2.7,5.8,7.6,20.3-1.8
		c4.5-4,9.9-9,15.8-16.6c3.1-4.5,9.4-4.9,13.9-1.8C372.1,212.3,373,218.6,369.4,223.1z M316.3,159.2l-2.7-4.5
		c-1.8-3.6-2.7-4.5-5-4.5c-0.4,0-4.5,0.5-9.4,4.5c0,0-3.6,2.7-7.6,5.9h-0.5c-1.8,0.9-4.9,1.4-5.4,1.4v0.4c-6.3,0-9.9-3.1-9.9-8.5
		c0-3.6,1.8-6.3,4-7.6l24.8-17.5c3.6-2.7,6.8-3.6,8.5-3.6c5,0,6.8,3.1,8.6,5.9c0.4,0.4,0.4,0.4,0.9,0.9l2.7,5.9l4.5,8.1
		c0.5,0.5,0.5,0.9,0.9,1.4c0.9,1.8,1.8,4,1.8,6.8c0,5.9-3.1,9-8.1,9C320.4,162.8,318.6,161.4,316.3,159.2z"/>
	<path class="st0" d="M406.8,263.1c-0.9,1.4-1.8,2.7-2.7,4.5c-6.8,12.1-18,33.3-39.2,41h-0.4c-3.2,1.3-6.8,1.8-10.4,1.8
		c-5.8,0-11.2-1.8-15.3-5.4c-7.2-5.9-10.3-15.3-9-26.6c0.9-7.7,5.4-18.4,9.5-27.9l26.5-63.4c0.9-4,5-7.2,9-7.2
		c5.4,0,9.9,4.5,9.9,9.9c0,1.8-0.4,3.1-1.3,5.4l-8.5,19.3l-18.5,44.1l1.8-4c-3.6,8.1-8.1,20.7-9,26.1c-0.5,4.5,0.5,7.7,1.8,9
		c1.8,0.9,4.1,1.3,7.2,0.5c14-5.4,23-21.6,28.4-32c1.3-1.8,2.3-3.6,3.1-4.9c2.7-5,8.5-6.3,13.5-3.6
		C407.7,252.3,409.5,258.2,406.8,263.1z M405,142.1c0,7.6-14.4,21.6-22.5,13.9c-4-3.1-1.8-12.1,1.4-17.5c4-6.3,9.9-7.2,14-5.4
		C400,134,404.5,136.2,405,142.1z"/>
	<path class="st0" d="M554.8,102c0,0.4,0,0.4,0,0.4c0,0.5-0.5,0.9-0.5,1.4L544,128.6l-58,136.8c0,0.5-0.5,0.9-0.5,0.9
		c-2.3,5.4-4,10.8-4.5,14c-0.5,4,0,7.6,1.8,9c1.4,0.9,4,0.9,7.2,0c14-5.4,22.5-21.2,28.3-32c0.9-1.8,1.8-3.2,2.7-5
		c2.7-4.5,9-6.3,13.5-3.6c5,2.7,6.8,9,3.6,13.5c-0.4,1.3-1.3,3.1-2.3,4.9c-6.8,12.2-18,32.8-39.6,40.5c-3.6,1.3-7.2,1.8-10.3,1.8
		c-5.8,0-11.3-1.8-15.8-5c-6.8-5.8-10.3-15.8-9-27c1.3-8.5,6.8-21.1,11.3-31c1.3-3.6,2.7-6.3,3.6-8.1c0-0.5,0.5-0.9,0.5-1.4
		l57.1-135c1.8-5.4,7.7-10.4,13-10.4C552.6,91.7,556.2,96.2,554.8,102z"/>
	<path class="st0" d="M666,263.1c-0.9,0.9-1.4,2.3-2.3,4c-8.1,14-21.2,37.8-41.4,41.4c0,0.4,0,0.4,0,0.4c-1.8,0-3.6,0.5-5.4,0.5
		c-6.8,0-12.6-2.3-17.1-6.3c-5.8-4-7.6-4-10.8-4c-2.3,0-4,0-10.3,3.1c-1.3,0.5-2.3,1.4-3.6,1.8c-6.3,3.1-13.1,4.9-19.4,4.9
		c-3.6,0-6.8-0.4-10.3-1.3c-16.2-4.5-30.6-21.2-22-55.3c4-15.3,10.8-30.1,19.8-41.8c8.5-10.8,18.5-19.4,29.3-24.8
		c13-6.3,25.6-7.2,35.5-2.7c5,2.3,7.2,8.1,5,13c-2.3,4.9-8.1,7.2-13.1,4.9c-4.5-1.8-11.2-0.9-18.4,2.7c-14,6.8-31.5,24.3-38.7,53.5
		c-2.3,8.1-5.4,27.5,7.7,31c7.2,1.8,15.3,0,23.4-6.3c11.7-9.4,21.6-27.9,26.1-40c0-0.9,0.5-1.3,0.5-2.3c3.6-11.7,6.8-14.9,6.8-14.9
		c2.7-2.7,7.2-4.1,11.3-2.7c4.5,2.3,7.2,7.2,5.8,12.6c-0.9,2.3-2.3,5.9-4,9.5c-3.1,8.1-8.1,21.1-9.4,31.9
		c-0.9,6.8,0.4,10.8,2.3,12.2c1.3,1.3,3.1,1.3,5.8,0.9c10.8-2.3,22-22.1,27.5-32c0.9-1.4,1.8-3.2,2.7-4.5c2.7-4.5,8.5-6.3,13.5-3.6
		C666.9,252.3,668.7,258.2,666,263.1z M612.4,152c0,0.9-0.5,2.7-0.9,3.6c-1.8,5-5.4,7.6-9.5,7.6c-6.3,0-8.5-4.9-11.2-9.9
		c-3.6-8.1-12.2-12.6-12.6-20.2c-0.9-3.1,2.7-10.4,7.7-10.4c0,0,2.3,0,3.6,0c4,0.9,8.1,4.5,8.1,4.5C606.6,134,612.4,147,612.4,152z"
		/>
	<path class="st0" d="M1151.1,79.5c-4,9.5-10.8,19.4-20.7,29.3c-20.3,20.2-45.9,41.8-76.9,63.9c-5.4,4.5-34.2,29.7-46.4,57.1
		c-0.4,1.4-1.3,2.7-1.8,4.1c-0.9,2.3-1.3,4-2.3,5.4c-21.6,52.6-32.8,91.3-32.8,112c0,5.4-4.5,9.9-9.9,9.9c-5.4,0-9.9-4.5-9.9-9.9
		c0-23,10.8-61.2,32-113.8c0.4-1.3,1.3-3.2,2.3-5c6.8-15.3-4.5-12.1-12.6-7.6c-2.7,1.4-4.9,2.7-7.6,4c-0.5,0.5-0.9,0.9-0.9,0.9
		l0.5-0.4c-3.6,2.3-7.7,4.5-11.3,6.3c-17.1,9.5-33.3,17.6-48.6,25.2c-15.8,7.2-36.5,15.8-36.9,15.8c-24.8,9.9-38.3,12.1-46.3,12.1
		c-3.2,0-5.9-0.4-7.7-0.9c-5.8-1.8-9.9-5.4-11.3-11.3c0-0.5,0-0.5,0-0.9c0-0.5,0-0.9,0-0.9c0-0.5,0-0.5,0-0.5c0-0.5,0-0.5,0-0.5
		s0,0,0-0.4c0,0,0,0,0-0.5c0-0.4,0-0.4,0-0.4s0,0,0-0.5c0.5-0.5,0.5-0.5,0.5-0.5s0,0,0-0.4c0-0.5,0-0.5,0.5-0.5c0,0,0,0,0-0.4
		c0-0.5,0-0.5,0-0.5c0.4-0.5,0.4-0.5,0.4-0.5V269c0.5,0,0.5,0,0.5,0v-0.5c0,0,0,0,0.5-0.4c0-0.5,0.5-0.5,0.5-0.5s0,0,0-0.5
		c0.5,0,0.5,0,0.5,0s0-0.4,0.4-0.4c0,0,0.5,0,0.5-0.5h0.5c0,0,0-0.4,0.5-0.4h0.5c0,0,0,0,0-0.5c0,0,0,0,0.4,0c0,0,0,0,0.5,0
		s0.5-0.5,0.5-0.5c0.5,0,0.5,0,0.9,0h0.4c0,0,0,0,0.5,0c0-0.4,0-0.4,0.5-0.4s0.5,0,0.5,0c2.7,0,4.5-1.4,5.8-3.6
		c1.8-4.5,1.8-9.5-0.5-13c-3.6-5.8-11.3-6.3-17.1-6.3c-12.1,0.9-24.8,8.1-34.6,19.8c-10.4,12.2-15.8,27.9-15.3,42.8
		c1.8,40.5,36.4,42.3,43.2,42.3c21.6,0,45-4.9,72.4-57.6c3.6-4.9,9.5-9.9,14.4-12.1c8.5-3.6,13.5-2.7,11.7,3.1
		c0,0.5-4.1,8.6-4.1,9.5c-31,63.4-60.3,76.9-94.5,76.9c-8.5,0-25.6-1.8-40-13.1c-9.9-7.6-21.6-22-22.9-48.1
		c-0.9-19.8,6.3-40.5,19.8-56.3c13.5-16.2,31-25.7,49-27c21.1-0.9,30.6,9,34.6,15.3c3.6,5.9,5.4,12.6,5,19.3c0,1.4,0,9.9,9.9,6.3
		c0.5,0,11.7-4.5,12.2-4.5l10.3-4c9-4.5,15.8-14.4,19.8-22l39.6-93.6c0.5-0.9,0.9-2.7,1.8-4.1c7.7-18.4-6.8-15.3-15.3-12.1
		c-2.3,0.9-4.5,1.8-6.8,2.7c-9,4-19.8,9-35.1,15.8c-2.3,1.4-7.6,4.9-8.5,8.5c0,0.9-0.5,1.8,0.9,4c0.9,1.4,4,1.4,6.8,1.4
		c5.4-0.4,10.3,3.6,10.3,9c0.5,5.4-3.6,10.4-9,10.8c-0.9,0-1.8,0-2.7,0c-13,0-19.3-5.8-22.5-11.3c-3.6-6.3-4.5-13-2.7-19.8
		c3.1-10.3,13.5-18,18.9-20.2C882,116,892.8,111,901.8,107c24.8-10.8,32-13.9,67-39.6c4-2.7,9.9-2.3,13,1.4c3.6,3.6,3.6,9.4,0.5,13
		c0,0.5-12.2,14.9-24.3,42.3l-37.4,87.3c-3.6,9.9-5.8,21.1,10.8,13l57.6-32.8c0.9-0.9,2.3-1.8,3.6-2.3c9.9-5.4,17.1-16.6,21.6-24.3
		c12.2-26.1,21.6-44.1,21.6-44.5c14-27.9,30.2-49.5,47.7-64.3c15.3-13,31-19.8,44.5-19.3c11.3,0.4,20.3,6.8,24.3,16.2
		C1155.1,60.6,1154.7,70.1,1151.1,79.5z M1134,60.2c-0.5-0.5-1.3-3.2-6.8-3.6c-4,0-14.8,0.9-31,14.4c-15.3,13-29.7,33.3-42.7,58.5
		c0,0-1.8,3.6-4.5,9.4c-1.8,4.1-6.3,16.6,4.5,9c24.7-18,46.3-36.4,63-53.1C1134,77.3,1135.8,65.1,1134,60.2z"/>
	<path class="st0" d="M1165,263.1c-0.5,1.4-1.3,2.7-2.3,4c-7.6,14.4-21.1,38.3-40.9,41.8c0,0,0,0-0.5,0c-1.8,0.5-3.6,0.9-5.4,0.9
		c-5.4,0-10.8-1.8-14.8-4.9c-0.9-0.5-1.3-0.9-2.3-1.8c-4.5-3.6-5.8-4-9-4c-2.7,0-6.8,1.8-14.4,5.4c0,0.5,0,0.5-0.5,0.5
		c-6.3,3.1-13,4-20.3,3.1c-10.3-0.9-15.8-6.3-18.9-10.4c-6.3-9-7.7-22.5-3.6-41.4c5.9-31,24.8-63,29.3-70.2c3.2-4.5,9.5-5.4,14-2.7
		c4.5,3.1,5.8,9.5,2.7,14c-4,5.8-21.1,35.5-26.5,63c-3.6,17.6-0.9,23.8,0.5,25.7c0.9,0.9,1.8,2.3,5,2.7c20.7,2.3,35.5-36.9,44.5-54
		l22.5-49c2.7-4.5,9.4-4.9,13.9-1.8c4.1,3.6,3.6,8.5,0.9,13.9c-4,8.6-8.5,20.3-16.2,37.8c0,0.5,0,0.5,0,0.5
		c-0.4,0-10.3,22.9-12.6,40.5c-0.9,6.8,0.5,10.4,2.3,12.1c0.9,0.9,3.2,1.4,5.8,0.9c10.8-2.3,22-22,27.5-31.9
		c0.9-1.8,1.8-3.2,2.7-4.5c2.7-4.5,8.5-6.3,13-3.6C1166.4,252.3,1168.2,258.6,1165,263.1z"/>
	<path class="st0" d="M1257.7,200.6c-1.3,3.1-17.1,39.1-18.9,45.9l-45.9,117c-2.7,6.8-10.8,24.8-22,41.4c-9,12.6-18,22.5-27,28.8
		c-9.9,7.2-19.3,9.5-27,9.5c-4,0-8.1-0.9-11.3-1.8c-14-4.5-23-16.2-23.8-31c-0.5-12.2,4-25.7,12.6-37.8c9.9-13,24.3-23.9,41.8-32
		c7.2-3.2,16.7-5.8,25.2-7.2c0,0,0,0,0.5-0.5h0.4c2.3,0,6.3-0.4,8.6,1.4c3.1,2.3,3.1,6.3,2.3,9c0,0.5,0,0.5,0,0.5
		c-2.3,7.2-3.6,7.7-6.8,8.5c-1.8,0.5-5.9,1.4-5.9,1.4s0,0-0.5,0c-6.3,0.9-9.9,2.3-15.3,4.9c-14.8,6.8-26.5,15.8-34.2,26.1
		c-6.3,8.1-9.5,16.7-9,24.3c0.5,5,2.3,11.3,9.9,13.5c1.8,0.5,3.6,0.9,5.4,0.9c25.2,0,51.3-50.8,58.9-69.7l13.1-33.8
		c0.9-3.6,0.4-8.6-10.4-8.6c-1.3,0-3.6,0-5.4-0.4c-9.9-0.9-15.3-6.3-18.5-10.3c-6.8-9-8.1-22.5-4-41.4c6.3-31,24.8-63,29.7-70.2
		c3.2-4.5,9-5.8,13.5-2.7s5.9,9.4,2.7,13.9c-4,5.9-21.1,35.5-26.5,63c-3.6,17.5-0.9,23.9,0.9,25.6c0.4,0.9,1.8,2.3,4.9,2.7
		c20.7,2.3,35.5-36.9,44.1-54l22.5-49c3.2-5,9.9-5,14-1.8C1260.9,190.2,1260,195.2,1257.7,200.6z"/>
</g>
<g>
</g>
<g>
</g>
<g>
</g>
<g>
</g>
<g>
</g>
<g>
</g>
<g>
</g>
<g>
</g>
<g>
</g>
<g>
</g>
<g>
</g>
<g>
</g>
<g>
</g>
<g>
</g>
<g>
</g>
</svg>
