<?xml version="1.0" encoding="utf-8"?>
<!-- Generator: Adobe Illustrator 23.0.0, SVG Export Plug-In . SVG Version: 6.00 Build 0)  -->
<svg version="1.1" id="Layer_1" xmlns="http://www.w3.org/2000/svg" xmlns:xlink="http://www.w3.org/1999/xlink" x="0px" y="0px"
	 viewBox="0 0 400 400" style="enable-background:new 0 0 400 400;" xml:space="preserve">
<style type="text/css">
	.st0{fill:#03C2D3;}
</style>
<g>
	<path class="st0" d="M105,390c0,5.5-4.5,10-10,10H45c-5.5,0-10-4.5-10-10V10c0-5.5,4.5-10,10-10h50c5.5,0,10,4.5,10,10V390z"/>
</g>
<g>
	<path class="st0" d="M385,390c0,5.5-4.5,10-10,10h-50c-5.5,0-10-4.5-10-10V10c0-5.5,4.5-10,10-10h50c5.5,0,10,4.5,10,10V390z"/>
</g>
<g>
	<path class="st0" d="M245,170c0,5.5-4.5,10-10,10h-50c-5.5,0-10-4.5-10-10V10c0-5.5,4.5-10,10-10h50c5.5,0,10,4.5,10,10V170z"/>
</g>
<g>
	<path class="st0" d="M245,390c0,5.5-4.5,10-10,10h-50c-5.5,0-10-4.5-10-10V229c0-5.5,4.5-10,10-10h50c5.5,0,10,4.5,10,10V390z"/>
</g>
</svg>
